<svg xmlns="http://www.w3.org/2000/svg" direction="ltr" width="144.41796563571006" height="151.78938312613815" viewBox="1161.8049532245607 -57.18819564522329 144.41796563571006 151.78938312613815" stroke-linecap="round" stroke-linejoin="round" style="background-color: rgb(33, 37, 41);" encoding="UTF-8&quot;"><defs/><g transform="matrix(1, 0, 0, 1, 1246.165, -25.1882)" opacity="1"><path d="M2.9778,1.0377 Q3.2816,2.6118 3.8029,4.4596 T4.7936,8.4467 5.783,13.1735 6.8931,18.7826 7.9641,25.2645 8.7046,32.0894 9.2565,39.4984 9.7083,47.0693 9.7953,54.1718 9.523,60.9964 8.7238,67.3979 7.4692,72.9373 5.9738,77.3682 4.0026,81.256 1.7623,84.5125 -0.9289,87.0247 -4.103,88.7565 -7.4242,89.7351 -11.1754,90.0855 -15.1459,89.5827 -19.1139,88.0688 -23.2744,85.2695 -27.3314,81.5445 -31.2377,77.4357 -35.2699,72.9461 -39.2677,68.0386 -42.7889,63.0391 -45.8429,58.202 -48.5039,53.4188 -50.5035,48.9387 -51.9609,44.6527 -52.9831,40.4648 -53.6542,37.0156 -54.1138,34.1393 -54.4454,30.9271 -54.5634,28.8117 -54.3847,28.1185 -53.9941,27.5187 -53.4323,27.075 -52.7583,26.8339 -52.0426,26.8206 -51.3601,27.0366 -50.7823,27.4591 -50.3697,28.0441 -50.1655,28.7302 -50.191,29.4456 -50.4436,30.1153 -50.8969,30.6694 -51.5034,31.0497 -52.1995,31.2164 -52.9125,31.1522 -53.5676,30.8636 -54.0962,30.381 -54.4431,29.7548 -54.5719,29.0507 -54.4691,28.3423 -54.1455,27.7038 -53.6349,27.202 -52.9909,26.8896 -52.2808,26.7991 -51.579,26.9402 -50.9589,27.2979 -50.4856,27.8349 -50.2085,28.495 -50.1241,28.8474 -50.0187,30.6044 -49.7999,35.0832 -49.4163,39.6587 -48.5832,43.5252 -47.2694,47.5132 -45.4092,51.6939 -42.8195,56.2759 -39.8227,60.936 -36.413,65.6715 -32.4635,70.3669 -28.4227,74.667 -24.5895,78.4521 -20.9391,81.5847 -17.4506,83.7702 -14.442,84.998 -11.5185,85.4713 -8.5245,85.3155 -4.7416,84.2037 -1.3084,82.1769 0.7802,79.5321 2.6331,76.1903 4.0538,72.1444 5.2243,66.9629 5.9587,60.8598 6.1835,54.2326 6.0377,47.3061 5.5027,39.8094 4.8467,32.5525 3.981,26.0021 2.7213,19.728 1.3323,14.2635 0.0871,9.8169 -1.2486,5.7792 -2.3469,2.108 -2.6748,0.0042 -2.4728,-1.0197 -1.8943,-1.8885 -1.0274,-2.4697 -0.0041,-2.6748 1.0199,-2.4728 1.8885,-1.8943 2.4697,-1.0273 2.674,-0.5362 2.9778,1.0377 Z" fill="#e1e1e1" stroke-linecap="round"/></g><g transform="matrix(1, 0, 0, 1, 1221.7529, -14.0223)" opacity="1"><path d="M2.0111,-2.8476 Q4.3573,-3.0118 7.0783,-3.3627 T12.7796,-4.1846 18.8788,-5.196 25.1908,-6.3186 31.6957,-7.2296 37.5226,-8.2811 42.4873,-9.4401 46.3943,-10.4466 49.8554,-11.6763 52.1698,-12.385 52.7906,-12.3817 53.3778,-12.1803 53.87,-11.8019 54.2156,-11.2862 54.3785,-10.6871 54.3415,-10.0674 54.1086,-9.4919 53.7041,-9.0209 53.1704,-8.7038 52.5634,-8.5736 51.9466,-8.6441 51.3846,-8.9079 50.9362,-9.3373 50.6484,-9.8874 50.5514,-10.5006 50.6552,-11.1127 50.949,-11.6596 51.4021,-12.084 51.967,-12.3415 52.5845,-12.4052 53.1901,-12.2684 53.7203,-11.9453 54.1195,-11.4699 54.3461,-10.8919 54.3762,-10.2718 54.2067,-9.6746 53.8555,-9.1627 53.3591,-8.7898 53.0806,-8.6441 51.0795,-7.9781 47.3331,-6.8222 43.3222,-5.9088 38.2359,-4.6602 32.2678,-3.474 25.9345,-2.4529 19.6335,-1.146 13.5249,0.1199 7.748,1.2931 2.6497,2.2655 -0.1911,2.6453 -1.1889,2.3708 -2.0057,1.7353 -2.5171,0.8357 -2.6453,-0.1912 -2.3708,-1.189 -1.7352,-2.0058 -0.8355,-2.5172 -0.335,-2.6834 2.0111,-2.8476 Z" fill="#e1e1e1" stroke-linecap="round"/></g></svg>